<?xml version="1.0" encoding="UTF-8"?>
<svg id="Layer_1" xmlns="http://www.w3.org/2000/svg" version="1.1" xmlns:xlink="http://www.w3.org/1999/xlink" viewBox="0 0 503.97 500">
  <!-- Generator: Adobe Illustrator 29.8.3, SVG Export Plug-In . SVG Version: 2.1.1 Build 3)  -->
  <defs>
    <style>
      .st0 {
        fill: url(#linear-gradient2);
      }

      .st1 {
        fill: url(#linear-gradient1);
      }

      .st2 {
        fill: none;
      }

      .st3 {
        fill: url(#linear-gradient4);
      }

      .st4 {
        fill: url(#linear-gradient5);
      }

      .st5 {
        fill: url(#linear-gradient3);
      }

      .st6 {
        fill: #0b0b0b;
      }

      .st7 {
        fill: url(#linear-gradient);
      }
    </style>
    <linearGradient id="linear-gradient" x1="189.38" y1="221.96" x2="198.94" y2="327.41" gradientUnits="userSpaceOnUse">
      <stop offset="0" stop-color="#6d6e71"/>
      <stop offset=".27" stop-color="#f4f4f4"/>
      <stop offset=".7" stop-color="#6d6e71"/>
    </linearGradient>
    <linearGradient id="linear-gradient1" x1="117.08" y1="205.81" x2="231.83" y2="320.56" xlink:href="#linear-gradient"/>
    <linearGradient id="linear-gradient2" x1="286.5" y1="262.29" x2="286.5" y2="-88.45" gradientUnits="userSpaceOnUse">
      <stop offset="0" stop-color="#6d6e71"/>
      <stop offset=".27" stop-color="#f4f4f4"/>
      <stop offset=".7" stop-color="#6d6e71"/>
      <stop offset="1" stop-color="#fff"/>
    </linearGradient>
    <linearGradient id="linear-gradient3" x1="286.5" y1="260.28" x2="286.5" y2="-75.4" xlink:href="#linear-gradient2"/>
    <linearGradient id="linear-gradient4" x1="111.58" y1="200.19" x2="234.53" y2="323.14" xlink:href="#linear-gradient"/>
    <linearGradient id="linear-gradient5" x1="117.32" y1="206.13" x2="231.82" y2="320.63" xlink:href="#linear-gradient"/>
  </defs>
  <rect class="st6" x="49.52" y="47.54" width="404.93" height="404.93" rx="70" ry="70"/>
  <g>
    <g>
      <path class="st7" d="M282.45,264.48h-.69c-37.32,0-67.7-30.38-67.7-67.7v-.69c-.02-.21-.03-.43-.05-.64h-38.08c-.02.21-.03.43-.05.64-2.88,36.49-32.46,65.86-69.03,68.44v38.08c36.78,2.6,66.5,32.3,69.08,69.08h38.08c2.59-36.57,31.96-66.13,68.44-69.03.21-.02.43-.03.64-.05v-38.08c-.21-.02-.43-.03-.64-.05ZM194.96,314.08c-8.12-12.01-18.5-22.39-30.51-30.51,11.28-7.64,21.14-17.27,29.04-28.36.49-.71.99-1.42,1.48-2.15,8.12,12.01,18.5,22.39,30.51,30.51-.71.49-1.42.97-2.13,1.48-11.11,7.9-20.74,17.74-28.38,29.04Z"/>
      <path class="st1" d="M179.33,367.95c-4.15-35.85-32.88-64.58-68.75-68.75v-31.27c35.77-4.16,64.6-32.94,68.75-68.75h31.03c1.25,37.48,31.51,67.75,68.99,68.99v31.03c-35.8,4.16-64.59,32.98-68.75,68.75h-31.27ZM191.85,250.98c-.29.44-.59.87-.89,1.3l-.57.82c-7.64,10.73-17.09,19.96-28.05,27.37l-4.58,3.1,4.58,3.1c11.68,7.9,21.61,17.83,29.51,29.51l3.1,4.58,3.1-4.59c7.4-10.95,16.63-20.4,27.45-28.09.68-.48,1.36-.94,2.04-1.41l4.55-3.11-4.53-3.11c-11.68-7.9-21.61-17.83-29.51-29.51l-3.12-4.62-3.09,4.64Z"/>
    </g>
    <g>
      <path class="st0" d="M309.94,128.31h-134.07v68.48c0,21.58,6.49,41.66,17.62,58.43,7.85,11.82,18.02,21.99,29.86,29.84,16.75,11.13,36.83,17.62,58.41,17.62h28.19c48.08,0,87.19-39.11,87.19-87.19s-39.11-87.17-87.19-87.17ZM309.94,264.48h-28.19c-37.32,0-67.7-30.38-67.7-67.7v-30.29h95.88c27.01,0,49,21.97,49,48.98s-21.99,49-49,49Z"/>
      <path class="st5" d="M281.75,298.92c-20.12,0-39.6-5.88-56.34-16.99-11.49-7.62-21.18-17.3-28.81-28.79-11.12-16.75-16.99-36.24-16.99-56.36v-64.73h130.33c46.01,0,83.45,37.43,83.45,83.43s-37.43,83.45-83.45,83.45h-28.19ZM210.32,196.78c0,39.39,32.05,71.44,71.44,71.44h28.19c29.08,0,52.74-23.66,52.74-52.74s-23.66-52.73-52.74-52.73h-99.63v34.03Z"/>
    </g>
    <g>
      <path class="st3" d="M225.41,283.52s.05.03.07.05c-.71.49-1.42.97-2.13,1.48-.36.26-.73.52-1.09.78-.07.05-.12.1-.19.16-9.51,6.94-17.9,15.34-24.8,24.86-.31.42-.59.8-.83,1.15-.42.59-.83,1.18-1.25,1.79-.14.21-.21.31-.21.31-36.59-51.34-88.13-49.56-88.13-49.56v38.08c36.78,2.6,66.5,32.3,69.08,69.08h38.08c2.59-36.57,31.96-66.13,68.44-69.03.21-.02.43-.03.64-.05v-38.08c-23.76-.09-43.19,8.75-57.68,18.99Z"/>
      <path class="st4" d="M179.33,367.95c-4.15-35.85-32.88-64.58-68.75-68.75v-30.83c12,.74,51.75,6.36,81.34,47.89l3.14,4.41,3.22-4.82c.36-.53.76-1.09,1.15-1.64l.05-.07c.23-.33.48-.68.77-1.06,6.73-9.26,14.8-17.35,24.02-24.08.11-.08.19-.15.27-.21l.99-.71c.67-.47,1.35-.94,2.04-1.41l3.73-2.54-.05-.05c15.14-9.84,31.29-15.13,48.11-15.75v30.87c-35.8,4.16-64.59,32.98-68.75,68.75h-31.27Z"/>
    </g>
    <path class="st2" d="M225.41,283.52c-1.09.76-2.14,1.54-3.16,2.31-.07.05-.12.1-.19.16-12.58,9.55-21,19.77-24.8,24.86-.31.42-.59.8-.83,1.15-.61.83-1.02,1.44-1.25,1.79-.14.21-.21.31-.21.31-8.12-12.01-18.5-22.39-30.51-30.51,11.28-7.64,21.14-17.27,29.04-28.36.49-.71.99-1.42,1.48-2.15,8.11,11.99,18.47,22.36,30.45,30.46Z"/>
    <path class="st2" d="M194.98,307.64c-6.83-9.18-14.89-17.25-24.07-24.07,9.15-6.81,17.22-14.88,24.06-24.04,6.82,9.17,14.89,17.23,24.07,24.06-11.75,9.05-19.87,18.59-24.06,24.06Z"/>
  </g>
</svg>